<svg width="200" height="200" viewBox="0 0 200 200" fill="none" xmlns="http://www.w3.org/2000/svg">
<rect width="200" height="200" rx="8" fill="#FFF6F1"/>
<g clip-path="url(#clip0_2084_7)">
<path d="M154.831 66.7706C148.256 67.751 142.168 69.5077 136.509 72.8009C122.823 80.7663 110.694 90.9342 98.3764 100.735C77.0499 117.693 42.2466 119.508 23.2745 101.537C22.1313 100.457 19.672 98.1916 18.0831 99.3922C16.2111 100.803 17.1707 103.582 17.9573 105.166C21.5231 112.324 26.6043 119.293 31.9006 125.302C42.3882 137.205 54.6692 148.6 71.1032 150.582C76.1426 151.191 81.8639 150.95 86.2894 148.018C90.343 145.339 92.7761 140.263 92.5086 135.433C92.3356 132.25 90.5999 129.287 88.9482 126.65C86.9396 123.44 83.9561 119.45 88.2402 116.304C94.197 111.925 100.736 108.228 107.763 105.758C112.477 104.101 116.038 106.036 116.772 110.336C117.894 116.938 116.646 122.864 110.962 127.274C103.604 132.984 105.838 138.768 108.272 142.124C117.207 154.447 137.6 148.228 137.6 148.228C160.705 139.502 176.483 126.917 182.083 100.698C185.864 82.9844 171.192 64.332 154.831 66.7706Z" fill="#EA5949"/>
<path d="M77.6797 82.9565C72.672 83.3025 71.0148 80.969 71.4132 76.8579C71.8014 72.9093 73.3797 69.3592 75.3094 65.9348C81.9325 54.1781 105.619 44.839 119.604 60.0095C123.684 64.435 123.605 66.2706 118.267 68.6144C105.939 74.0314 94.4023 81.6454 80.4171 82.6101C79.3107 82.689 78.2093 82.8882 77.6797 82.9565Z" fill="#EA5949"/>
<path d="M95.0811 121.109C95.0811 121.109 100.718 122.702 105.805 120.652C105.338 121.969 104.452 126.09 100.194 126.09C100.194 126.09 96.1297 126.09 95.0811 121.109Z" fill="#EA5949"/>
</g>
<defs>
<clipPath id="clip0_2084_7">
<rect width="166" height="166" fill="white" transform="translate(17 17)"/>
</clipPath>
</defs>
</svg>
