<svg width="52" height="52" viewBox="0 0 52 52" fill="none" xmlns="http://www.w3.org/2000/svg">
<path d="M43.1761 15.5911C41.1162 15.8982 39.2091 16.4485 37.4367 17.4801C33.1494 19.9753 29.35 23.1604 25.4914 26.2305C18.8108 31.5428 7.90858 32.1111 1.9655 26.4818C1.60741 26.1434 0.837016 25.4338 0.339295 25.8099C-0.247128 26.2518 0.053477 27.1224 0.299873 27.6185C1.41687 29.8607 3.00858 32.0438 4.66765 33.9262C7.95294 37.655 11.8 41.2245 16.948 41.8454C18.5266 42.036 20.3188 41.9604 21.7051 41.0422C22.9749 40.2028 23.7371 38.6127 23.6533 37.0998C23.5991 36.1027 23.0554 35.1746 22.538 34.3484C21.9088 33.3431 20.9742 32.093 22.3162 31.1075C24.1822 29.7359 26.2306 28.5778 28.4318 27.8041C29.9085 27.285 31.0239 27.8912 31.2538 29.2381C31.6053 31.3062 31.2144 33.1624 29.4338 34.5439C27.1291 36.3327 27.8289 38.1445 28.5911 39.1958C31.3902 43.056 37.7784 41.1079 37.7784 41.1079C45.0159 38.3745 49.9586 34.4322 51.7129 26.219C52.8973 20.6701 48.3012 14.8272 43.1761 15.5911Z" fill="#BF8C4E"/>
<path d="M19.0081 20.6605C17.4394 20.7689 16.9203 20.0379 17.0451 18.7501C17.1667 17.5132 17.6611 16.4011 18.2656 15.3284C20.3403 11.6456 27.7601 8.72009 32.141 13.4723C33.419 14.8586 33.3944 15.4336 31.7221 16.1678C27.8603 17.8647 24.2465 20.2498 19.8656 20.552C19.519 20.5767 19.174 20.6391 19.0081 20.6605Z" fill="#BF8C4E"/>
<path d="M24.459 32.6117C24.459 32.6117 26.2248 33.111 27.8182 32.4688C27.672 32.8811 27.3944 34.1722 26.0606 34.1722C26.0606 34.1722 24.7875 34.1722 24.459 32.6117Z" fill="#BF8C4E"/>
</svg>
