<svg width="127" height="82" viewBox="0 0 127 82" fill="none" xmlns="http://www.w3.org/2000/svg">
<path d="M114.082 5.18091C112.022 5.48808 110.115 6.03837 108.343 7.06995C104.056 9.56512 100.256 12.7502 96.3977 15.8203C89.7171 21.1326 78.8148 21.701 72.8718 16.0716C72.5137 15.7332 71.7433 15.0236 71.2455 15.3998C70.6591 15.8417 70.9597 16.7123 71.2061 17.2083C72.3231 19.4505 73.9148 21.6336 75.5739 23.5161C78.8592 27.2449 82.7063 30.8143 87.8543 31.4353C89.4329 31.6258 91.225 31.5502 92.6114 30.632C93.8812 29.7926 94.6433 28.2025 94.5596 26.6897C94.5054 25.6926 93.9616 24.7645 93.4442 23.9382C92.8151 22.9329 91.8804 21.6829 93.2225 20.6973C95.0885 19.3257 97.1369 18.1676 99.338 17.394C100.815 16.8749 101.93 17.481 102.16 18.828C102.512 20.8961 102.121 22.7523 100.34 24.1337C98.0354 25.9226 98.7352 27.7344 99.4973 28.7857C102.296 32.6459 108.685 30.6977 108.685 30.6977C115.922 27.9644 120.865 24.022 122.619 15.8088C123.804 10.26 119.207 4.41708 114.082 5.18091Z" fill="black"/>
<path d="M89.9143 10.2503C88.3456 10.3587 87.8266 9.62774 87.9514 8.3399C88.0729 7.103 88.5674 5.99093 89.1719 4.91828C91.2465 1.23548 98.6663 -1.69006 103.047 3.0621C104.325 4.44849 104.301 5.02341 102.628 5.75767C98.7665 7.45452 95.1527 9.83964 90.7718 10.1419C90.4252 10.1665 90.0802 10.2289 89.9143 10.2503Z" fill="black"/>
<path d="M95.3652 22.2015C95.3652 22.2015 97.1311 22.7009 98.7244 22.0586C98.5782 22.4709 98.3006 23.762 96.9668 23.762C96.9668 23.762 95.6938 23.762 95.3652 22.2015Z" fill="black"/>
<path d="M114.985 32.0234C112.023 35.1675 108.572 37.4672 104.444 38.2146C101.594 38.7303 98.7738 39.3775 96.0749 40.465C94.8364 40.9643 93.6619 41.577 92.6221 42.4263C91.0895 43.6796 90.2518 45.2878 90.1039 47.2639C89.8395 50.7791 90.8447 54.0792 91.8451 57.371C92.4792 59.4556 93.2923 61.4842 93.8918 63.5802C94.0315 64.0681 94.1432 64.5362 94.2779 65.0767C94.107 64.8336 93.6422 63.7938 93.5305 63.5868C91.2538 58.3747 89.1873 54.2451 87.2129 48.9049C86.6807 47.4643 86.2618 45.9925 86.0137 44.4747C85.5259 41.4818 86.6675 39.3578 89.4715 38.1686C92.2656 36.9842 95.2552 36.6705 98.2219 36.2532C101.152 35.8426 104.142 35.9001 107.035 35.2052C109.336 34.6533 111.251 33.9601 113.347 32.8891C113.669 32.7265 114.392 32.3109 114.985 32.0234Z" fill="black"/>
<path d="M94.2213 76.5815C95.9017 72.7624 97.6002 68.9925 97.2897 64.6822C96.9875 60.4853 95.1198 56.3261 93.3047 52.6367C93.6201 53.026 93.9552 53.5582 94.351 54.1348C96.3304 57.2312 97.8959 59.3091 99.3348 62.7143C100.754 66.0719 100.393 69.2143 98.2753 72.1759C97.1123 73.8038 95.7982 75.2838 94.2213 76.5815Z" fill="black"/>
<path d="M13.3095 81.2127C10.8734 81.2127 8.64928 80.6854 6.69947 79.6456C4.94841 78.7208 3.222 77.0535 2.24298 75.3682C1.26561 73.6828 0.769531 71.7839 0.769531 69.7208C0.769531 66.9874 1.64999 64.7649 3.38626 63.1174C5.11925 61.4714 7.45344 60.637 10.3231 60.637C13.5296 60.637 16.9955 62.1301 20.6209 65.077C21.8266 66.056 23.5136 67.656 25.6358 69.8325L25.9824 70.1791C26.4325 69.3495 26.6609 68.4691 26.6609 67.5607C26.6609 66.0528 25.9939 64.783 24.6782 63.7876C23.346 62.7806 21.5637 62.2106 19.3807 62.094L19.1129 62.0792L19.2476 61.846C19.5072 61.3992 19.7141 60.8916 19.8603 60.338L19.8932 60.2165L31.3358 60.1688L31.4919 59.6612C31.9649 58.0252 32.3592 56.8326 32.6614 56.1148C33.3973 54.367 34.1644 52.3531 35.7118 51.1064C37.3676 49.7725 39.5063 49.2305 41.604 49.2305C41.829 49.2305 42.1165 49.2633 42.4581 49.3307L42.6158 49.3619L42.5879 49.5196C42.4483 50.3392 42.1263 51.6041 41.6319 53.2812L41.4857 53.8019H40.5478L40.6069 53.5933C40.7958 52.9231 40.8911 52.45 40.8911 52.1856C40.8911 51.586 40.5987 51.3183 39.9416 51.3183C35.4851 51.3183 34.4585 56.6207 33.486 59.9914L33.4351 60.1688H39.5983L38.3384 64.3855H37.3955L37.4629 64.1719C37.5154 64.006 37.5516 63.8779 37.5729 63.7941C37.6879 63.4163 37.7454 63.1075 37.7454 62.866C37.7454 62.5704 37.637 62.4045 37.3939 62.3289C37.0982 62.2369 36.3607 62.1909 35.201 62.1909H32.8356L32.6466 62.7708C30.4028 69.9524 27.5167 76.9221 20.1478 80.0957C17.9581 81.0337 15.463 81.2127 13.3095 81.2127ZM8.82012 61.9478C6.83088 61.9478 5.1636 62.5999 3.86263 63.8845C2.56165 65.169 1.90295 66.8182 1.90295 68.7845C1.90295 71.7954 3.08566 74.3054 5.41656 76.2486C7.75733 78.1985 10.7847 79.1873 14.4182 79.1873C18.4493 79.1873 22.3571 77.7057 25.1578 74.7851C27.9339 71.8874 29.5355 67.651 30.7954 62.1893L24.3217 62.1466C25.2055 62.6509 25.948 63.3227 26.5377 64.1489C27.2637 65.1674 27.6333 66.2499 27.6333 67.3652C27.6333 69.0769 26.9894 70.9938 25.7213 73.0652L25.603 73.259L25.4568 73.0849C22.4278 69.5007 19.4431 66.7164 16.5865 64.8076C13.7431 62.9104 11.1313 61.9478 8.82012 61.9478Z" fill="black"/>
<path d="M38.535 72.3513C37.9452 72.3513 37.2422 72.0737 37.2422 70.7513C37.2422 69.0988 37.9863 67.2919 39.4532 65.3848C40.9119 63.4892 42.7697 61.9074 44.9725 60.6869C47.4578 59.2923 49.971 58.5859 52.4399 58.5859C53.0543 58.5859 53.12 58.972 53.12 59.1379C53.12 59.3859 52.9606 59.7998 52.6173 60.4421L52.5615 60.5473L52.4448 60.5259C51.727 60.3994 51.019 60.3354 50.3439 60.3354C49.3353 60.3354 48.3662 60.4602 47.4414 60.7082L47.5744 60.7887C48.0869 61.0992 48.3481 61.6675 48.3481 62.4774C48.3481 63.4712 47.8849 64.6095 46.9683 65.8628C47.397 65.7922 47.8996 65.6592 48.4696 65.467L48.836 65.3438L48.5419 65.9663C47.2886 68.7769 47.0258 69.6639 47.0258 69.9136C47.0258 70.1666 47.1276 70.1863 47.2426 70.1863C47.2557 70.1863 47.2705 70.1863 47.2853 70.1846C47.4512 70.1715 47.8241 70.0532 48.6487 69.5621L48.7801 69.4832L49.2483 70.1584L49.1218 70.2536C47.9801 71.1127 46.4032 71.7944 44.432 72.2823L44.2185 72.3349L44.23 72.1147C44.2776 71.1407 44.7655 69.6064 45.7149 67.4398C44.5487 68.7194 43.3462 69.815 42.129 70.707C40.6145 71.8125 39.44 72.3513 38.535 72.3513ZM47.3625 60.7279C45.3651 61.2799 43.568 62.4084 41.9944 64.1052C40.2893 65.9368 39.4253 67.7716 39.4253 69.5588C39.4253 70.569 39.8753 70.6856 40.2121 70.6856C40.7049 70.6856 41.449 70.2306 42.4231 69.3337C43.4185 68.4171 44.322 67.3396 45.1072 66.1306C46.188 64.4567 46.9354 62.6942 47.3264 60.8938L47.3625 60.7279Z" fill="black"/>
<path d="M49.2363 72.3357L49.5632 71.5899C51.5656 66.9412 53.3265 62.6884 54.795 58.9481C56.6184 54.3044 57.0011 52.9788 57.0011 52.6847C57.0011 52.5188 56.9502 52.3644 56.5839 52.3644C56.367 52.3644 56.0007 52.4581 55.4948 52.6453L55.3387 52.7028L55.0513 51.893L55.2057 51.8371C56.5921 51.3361 58.1279 50.6659 59.7689 49.8446L60.0301 49.7148L60.0071 50.0056C59.8774 51.6384 58.4483 55.6776 55.641 62.3517C56.6463 61.371 57.7304 60.5366 58.8737 59.868C60.27 59.05 61.497 58.636 62.522 58.636C63.5996 58.636 64.1696 59.234 64.1696 60.3657C64.1696 61.5764 63.6177 62.9973 62.5269 64.589C61.4461 66.1659 60.0498 67.6114 58.3776 68.8861C55.3289 71.1776 52.3376 72.339 49.486 72.339H49.2363V72.3357ZM52.1356 70.4236C52.3179 70.4466 52.4641 70.4581 52.5692 70.4581C54.8821 70.4581 56.9814 69.2689 58.8113 66.9248C59.5521 65.9704 60.178 64.9405 60.6708 63.8596C61.1586 62.7903 61.4067 61.9164 61.4067 61.2659C61.4067 60.6072 61.1208 60.3017 60.5065 60.3017C59.3369 60.3017 57.8881 61.3431 56.1978 63.3948C54.524 65.4251 53.159 67.7888 52.1356 70.4236Z" fill="black"/>
<path d="M61.4316 72.3357L61.7585 71.5899C63.7609 66.9412 65.5218 62.6884 66.9903 58.9481C68.8137 54.3044 69.1964 52.9788 69.1964 52.6847C69.1964 52.5188 69.1455 52.3644 68.7792 52.3644C68.5623 52.3644 68.196 52.4581 67.6901 52.6453L67.5341 52.7028L67.2466 51.893L67.401 51.8371C68.7874 51.3361 70.3233 50.6659 71.9643 49.8446L72.2254 49.7148L72.2024 50.0056C72.0727 51.6384 70.6436 55.6776 67.8363 62.3517C68.8416 61.371 69.9257 60.5366 71.069 59.868C72.4653 59.05 73.6923 58.636 74.7173 58.636C75.7949 58.636 76.3649 59.234 76.3649 60.3657C76.3649 61.5764 75.813 62.9973 74.7223 64.589C73.6414 66.1659 72.2452 67.6114 70.5729 68.8861C67.5242 71.1776 64.533 72.339 61.6813 72.339H61.4316V72.3357ZM64.3309 70.4236C64.5132 70.4466 64.6594 70.4581 64.7646 70.4581C67.0774 70.4581 69.1767 69.2689 71.0066 66.9248C71.7474 65.9704 72.3733 64.9405 72.8661 63.8596C73.3539 62.7903 73.602 61.9164 73.602 61.2659C73.602 60.6072 73.3162 60.3017 72.7018 60.3017C71.5322 60.3017 70.0834 61.3431 68.3932 63.3948C66.7193 65.4251 65.3543 67.7888 64.3309 70.4236Z" fill="black"/>
<path d="M87.5092 59.0709C86.5779 59.0709 85.3902 59.7049 83.8774 61.0059C82.5452 62.1525 81.1029 63.7163 79.5818 65.6612C80.0812 63.5783 80.3325 61.9241 80.3325 60.7365C80.3325 60.0729 80.2422 59.5062 80.0648 59.0462L79.9941 58.8672L79.8282 58.9641C79.6952 59.043 79.6114 59.0922 79.5901 59.1087L78.0476 59.9595L76.5216 60.7069L76.5117 60.7135C76.4986 60.7217 76.451 60.7497 76.2883 60.8318L76.1651 60.8926L76.3984 61.6712L76.5594 61.6186C76.6596 61.5841 76.7384 61.5562 76.791 61.5348C77.0834 61.4248 77.3133 61.3673 77.476 61.3673C77.6107 61.3673 77.9721 61.3673 77.9721 62.2198C77.9721 63.373 77.7421 64.9877 77.2871 67.0443C76.9963 68.3567 76.6119 69.8499 76.1389 71.5188L75.973 72.1414L76.9487 72.0346C77.5006 70.8404 78.1511 69.6019 78.7999 68.5194C79.641 67.1165 80.5625 65.8123 81.553 64.6148C83.2876 62.5253 84.6445 61.4642 85.589 61.4642C85.8994 61.4642 86.3117 61.5858 86.3117 62.6239C86.3117 63.299 86.1196 64.1516 85.7417 65.1552C85.3607 66.1638 84.8843 67.0886 84.3241 67.9017C83.3632 69.3078 82.1854 70.4593 80.822 71.325C79.9876 71.8572 78.8558 72.2005 77.4579 72.3484C75.8481 72.5126 74.7788 72.695 74.1858 72.9052C73.5878 73.1171 73.0211 73.5113 72.4971 74.0797C71.431 75.2673 70.8906 76.4221 70.8906 77.5128C70.8906 78.4015 71.2651 79.1341 72.0043 79.6926C72.7304 80.238 73.6749 80.5156 74.8133 80.5156C76.745 80.5156 77.8571 79.7928 78.1199 78.3654L78.1856 78.0089L77.8751 78.1945C76.947 78.7464 75.9122 79.0257 74.7968 79.0257C73.8967 79.0257 73.1575 78.8516 72.6006 78.5099C72.0618 78.1781 71.8006 77.7625 71.8006 77.2385C71.8006 76.5256 72.0782 75.9835 72.6499 75.5827C73.238 75.1688 74.2252 74.8517 75.5804 74.6415C77.2066 74.3918 78.6636 73.9023 79.912 73.1861C81.1571 72.4715 82.5057 71.3431 83.9184 69.8335C87.0312 66.5153 88.6082 63.4764 88.6082 60.8006C88.6082 59.3715 88.0102 59.0709 87.5092 59.0709Z" fill="black"/>
<path d="M108.869 72.1943C108.989 70.504 110.165 67.2614 112.368 62.5536C112.782 61.6732 112.869 61.2987 112.869 61.1393C112.869 60.8042 112.739 60.8042 112.662 60.8042C112.527 60.8042 112.167 60.9093 111.279 61.6075C110.581 62.1578 109.892 62.8132 109.235 63.5556C108.233 64.6644 107.22 65.9851 106.224 67.4816C105.229 68.9764 104.481 70.2954 104.003 71.3993L103.966 71.4847L103.874 71.4962C103.144 71.5898 102.456 71.8017 101.832 72.1237L101.428 72.3323L101.783 71.4945C102.51 69.7928 103.194 68.1271 103.813 66.5469L105.7 61.7405L107.62 56.9489C108.534 54.6246 108.995 53.1791 108.995 52.6551C108.995 52.3233 108.854 52.2543 108.644 52.2543C108.545 52.2543 108.31 52.2953 107.745 52.4875L107.382 52.6271L107.111 51.842L107.269 51.7894C108.534 51.364 109.822 50.7989 111.098 50.1073L111.633 49.7969L111.647 50.0646C111.658 50.2765 111.663 50.4276 111.663 50.5246C111.663 51.3344 111.389 52.5384 110.847 54.1022C110.31 55.6545 109.222 58.3961 107.617 62.2497L106.126 65.8553C110.078 61.0424 112.861 58.7 114.628 58.7C115.232 58.7 115.566 59.0334 115.566 59.6379C115.566 60.042 115.37 60.6662 114.97 61.545L113.969 63.7544C111.888 68.3407 111.451 69.7665 111.451 70.1558C111.451 70.2823 111.482 70.3463 111.658 70.3463C111.837 70.3463 112.218 70.2543 113.015 69.8174L113.289 69.6646L113.769 70.3562L113.608 70.4432C112.552 71.0149 111.165 71.6095 109.488 72.2124L108.848 72.4423L108.869 72.1943Z" fill="black"/>
<path d="M117.19 72.514C116.254 72.514 115.139 72.1132 115.139 70.2044C115.139 68.57 115.643 66.8337 116.635 65.0432C117.626 63.256 118.913 61.7629 120.462 60.6032C122.355 59.1905 124.07 58.4727 125.561 58.4727C126.751 58.4727 127 59.0706 127 59.5732C127 60.0217 126.79 60.5342 126.356 61.1436C125.939 61.73 125.412 62.2672 124.789 62.737C124.209 63.164 123.467 63.5616 122.583 63.9197C121.678 64.286 120.996 64.4634 120.497 64.4634C120.103 64.4634 119.579 64.3024 119.303 63.5435C118.877 64.2137 118.501 64.9397 118.179 65.7184C117.621 67.0686 117.337 68.2842 117.337 69.3338C117.337 70.3555 117.726 70.8303 118.56 70.8303C119.521 70.8303 120.543 70.2849 121.596 69.2106C122.667 68.1183 123.57 66.6892 124.28 64.9644L124.418 64.6293L124.579 64.9529C124.74 65.2765 124.822 65.5722 124.822 65.8333C124.822 66.9076 124.083 68.1478 122.624 69.5178C120.518 71.5054 118.69 72.514 117.19 72.514ZM119.472 63.2987C119.914 63.3612 120.27 63.394 120.53 63.394C121.566 63.394 122.537 63.0918 123.414 62.4955C124.272 61.9124 124.705 61.2832 124.705 60.6229C124.705 60.3387 124.61 60.0135 123.869 60.0135C122.731 60.0135 121.542 60.7329 120.333 62.1489C120.026 62.5086 119.735 62.893 119.465 63.2987H119.472Z" fill="black"/>
</svg>
