<svg width="302" height="152" viewBox="0 0 302 152" fill="none" xmlns="http://www.w3.org/2000/svg">
<path d="M261.349 8.60238C257.531 9.17286 253.999 10.1927 250.717 12.1034C242.773 16.7259 235.736 22.6261 228.585 28.3152C216.21 38.158 196.009 39.2091 184.998 28.7802C184.334 28.1511 182.907 26.8382 181.985 27.5338C180.899 28.3543 181.454 29.9642 181.915 30.8863C183.982 35.0399 186.932 39.0841 190.007 42.5734C196.095 49.4817 203.222 56.0969 212.76 57.2457C215.683 57.5974 219.004 57.4567 221.575 55.757C223.927 54.2018 225.342 51.2556 225.186 48.4501C225.084 46.6019 224.076 44.8827 223.119 43.3549C221.954 41.4949 220.219 39.1778 222.708 37.3492C226.166 34.8094 229.961 32.6642 234.04 31.2302C236.775 30.269 238.842 31.3943 239.268 33.8872C239.92 37.7204 239.194 41.1589 235.896 43.7182C231.625 47.0317 232.922 50.3882 234.337 52.338C239.522 59.4885 251.361 55.882 251.361 55.882C264.772 50.818 273.927 43.5151 277.178 28.2996C279.362 18.0114 270.844 7.18399 261.349 8.60238Z" fill="black"/>
<path d="M216.57 17.9928C213.662 18.1921 212.701 16.8401 212.936 14.4527C213.158 12.1629 214.077 10.0998 215.198 8.11487C219.043 1.28863 232.789 -4.13095 240.905 4.67635C243.273 7.24351 243.226 8.31024 240.127 9.67001C232.973 12.8116 226.276 17.2348 218.16 17.7935C217.519 17.8365 216.878 17.9537 216.57 17.9928Z" fill="black"/>
<path d="M226.67 40.1368C226.67 40.1368 229.941 41.0629 232.895 39.8711C232.625 40.6369 232.11 43.0283 229.636 43.0283C229.636 43.0283 227.28 43.0283 226.67 40.1368Z" fill="black"/>
<path d="M263.021 58.3359C257.535 64.158 251.139 68.421 243.492 69.8081C238.209 70.7654 232.985 71.9611 227.984 73.9773C225.69 74.9033 223.513 76.0365 221.587 77.6112C218.75 79.9322 217.195 82.9135 216.922 86.5748C216.433 93.0884 218.293 99.1996 220.149 105.299C221.321 109.16 222.834 112.922 223.939 116.802C224.197 117.705 224.404 118.573 224.654 119.577C224.338 119.123 223.474 117.201 223.271 116.814C219.055 107.159 215.222 99.5044 211.569 89.6108C210.584 86.9421 209.806 84.2147 209.349 81.4014C208.443 75.8568 210.56 71.9181 215.753 69.7182C220.931 67.5261 226.467 66.9401 231.965 66.1703C237.397 65.4084 242.933 65.5138 248.29 64.2283C252.553 63.2046 256.101 61.9229 259.985 59.938C260.583 59.6371 261.923 58.8673 263.021 58.3359Z" fill="black"/>
<path d="M224.549 140.884C227.663 133.808 230.809 126.825 230.234 118.839C229.675 111.063 226.213 103.357 222.849 96.5234C223.431 97.2463 224.057 98.231 224.787 99.2977C228.452 105.034 231.356 108.886 234.02 115.193C236.65 121.414 235.982 127.236 232.055 132.726C229.906 135.738 227.468 138.481 224.549 140.884Z" fill="black"/>
<path d="M30.6949 151.905C24.9002 151.905 19.6096 150.651 14.9715 148.178C10.8062 145.978 6.69948 142.012 4.37067 138.003C2.04576 133.994 0.865723 129.477 0.865723 124.569C0.865723 118.067 2.96009 112.78 7.09022 108.861C11.2125 104.946 16.765 102.961 23.5912 102.961C31.2185 102.961 39.4631 106.513 48.0867 113.523C50.9548 115.852 54.9677 119.658 60.0161 124.835L60.8405 125.659C61.9112 123.686 62.4543 121.592 62.4543 119.431C62.4543 115.844 60.8679 112.823 57.738 110.456C54.5691 108.06 50.3296 106.704 45.1367 106.427L44.4997 106.392L44.8202 105.837C45.4375 104.774 45.9298 103.567 46.2776 102.25L46.3558 101.961L73.5748 101.848L73.946 100.64C75.0713 96.7484 76.0091 93.9116 76.728 92.2041C78.4786 88.0466 80.3033 83.2561 83.9841 80.2904C87.9228 77.1176 93.0102 75.8281 98 75.8281C98.5353 75.8281 99.2191 75.9063 100.032 76.0665L100.407 76.1407L100.341 76.5158C100.008 78.4656 99.2425 81.4743 98.0664 85.4638L97.7186 86.7024H95.4875L95.6282 86.2062C96.0775 84.612 96.3041 83.4866 96.3041 82.8575C96.3041 81.4313 95.6086 80.7944 94.0457 80.7944C83.4449 80.7944 81.0027 93.4076 78.6896 101.426L78.5684 101.848H93.229L90.232 111.878H87.9892L88.1494 111.37C88.2744 110.975 88.3604 110.67 88.4112 110.471C88.6847 109.572 88.8215 108.838 88.8215 108.264C88.8215 107.56 88.5636 107.166 87.9853 106.986C87.282 106.767 85.5275 106.658 82.7689 106.658H77.1422L76.6929 108.037C71.3553 125.12 64.49 141.699 46.9614 149.248C41.7528 151.479 35.8175 151.905 30.6949 151.905ZM20.0159 106.079C15.2841 106.079 11.318 107.631 8.22337 110.686C5.1287 113.742 3.56183 117.665 3.56183 122.342C3.56183 129.504 6.37516 135.475 11.9198 140.097C17.4878 144.735 24.6892 147.088 33.3324 147.088C42.9211 147.088 52.2169 143.563 58.879 136.616C65.4825 129.723 69.2922 119.646 72.2892 106.654L56.8901 106.552C58.9923 107.752 60.7585 109.35 62.1612 111.315C63.8883 113.738 64.7675 116.313 64.7675 118.966C64.7675 123.037 63.2358 127.597 60.2192 132.525L59.9379 132.986L59.5901 132.572C52.3849 124.046 45.2851 117.422 38.4901 112.882C31.7264 108.369 25.5136 106.079 20.0159 106.079Z" fill="black"/>
<path d="M90.6967 130.83C89.294 130.83 87.6216 130.17 87.6216 127.024C87.6216 123.093 89.3916 118.795 92.881 114.259C96.3507 109.75 100.77 105.987 106.01 103.084C111.922 99.7661 117.9 98.0859 123.773 98.0859C125.234 98.0859 125.391 99.0042 125.391 99.3988C125.391 99.9888 125.012 100.974 124.195 102.501L124.062 102.751L123.785 102.701C122.077 102.4 120.393 102.247 118.787 102.247C116.388 102.247 114.083 102.544 111.883 103.134L112.199 103.326C113.418 104.064 114.04 105.416 114.04 107.343C114.04 109.707 112.938 112.414 110.757 115.396C111.777 115.228 112.973 114.911 114.329 114.454L115.2 114.161L114.501 115.642C111.519 122.327 110.894 124.437 110.894 125.031C110.894 125.633 111.136 125.68 111.41 125.68C111.441 125.68 111.476 125.68 111.511 125.676C111.906 125.645 112.793 125.364 114.755 124.195L115.067 124.008L116.181 125.614L115.88 125.84C113.164 127.884 109.413 129.505 104.724 130.666L104.216 130.791L104.244 130.267C104.357 127.95 105.518 124.301 107.776 119.147C105.002 122.191 102.142 124.797 99.2461 126.919C95.6435 129.548 92.8497 130.83 90.6967 130.83ZM111.695 103.181C106.944 104.494 102.669 107.178 98.9257 111.215C94.8698 115.572 92.8145 119.936 92.8145 124.187C92.8145 126.59 93.8852 126.868 94.6862 126.868C95.8584 126.868 97.6285 125.786 99.9455 123.652C102.313 121.472 104.463 118.909 106.33 116.033C108.901 112.051 110.679 107.858 111.609 103.576L111.695 103.181Z" fill="black"/>
<path d="M116.154 130.789L116.931 129.015C121.695 117.957 125.883 107.841 129.376 98.944C133.714 87.8977 134.624 84.7445 134.624 84.0451C134.624 83.6504 134.503 83.2831 133.632 83.2831C133.116 83.2831 132.245 83.5058 131.041 83.9513L130.67 84.088L129.986 82.1617L130.353 82.0288C133.651 80.8371 137.305 79.2428 141.208 77.2891L141.829 76.9805L141.775 77.6721C141.466 81.5561 138.067 91.1644 131.389 107.04C133.78 104.707 136.359 102.722 139.079 101.132C142.4 99.1863 145.319 98.2016 147.757 98.2016C150.32 98.2016 151.676 99.6239 151.676 102.316C151.676 105.196 150.363 108.576 147.769 112.362C145.198 116.113 141.876 119.552 137.899 122.584C130.646 128.035 123.531 130.797 116.748 130.797H116.154V130.789ZM123.05 126.241C123.484 126.296 123.832 126.323 124.082 126.323C129.584 126.323 134.577 123.494 138.93 117.918C140.692 115.648 142.181 113.198 143.353 110.627C144.514 108.083 145.104 106.005 145.104 104.457C145.104 102.89 144.424 102.164 142.963 102.164C140.18 102.164 136.734 104.641 132.713 109.521C128.732 114.351 125.485 119.974 123.05 126.241Z" fill="black"/>
<path d="M145.163 130.789L145.94 129.015C150.703 117.957 154.892 107.841 158.385 98.944C162.722 87.8977 163.633 84.7445 163.633 84.0451C163.633 83.6504 163.512 83.2831 162.64 83.2831C162.125 83.2831 161.253 83.5058 160.05 83.9513L159.679 84.088L158.995 82.1617L159.362 82.0288C162.66 80.8371 166.313 79.2428 170.217 77.2891L170.838 76.9805L170.783 77.6721C170.475 81.5561 167.075 91.1644 160.398 107.04C162.789 104.707 165.368 102.722 168.087 101.132C171.409 99.1863 174.327 98.2016 176.766 98.2016C179.329 98.2016 180.685 99.6239 180.685 102.316C180.685 105.196 179.372 108.576 176.777 112.362C174.206 116.113 170.885 119.552 166.907 122.584C159.655 128.035 152.54 130.797 145.757 130.797H145.163V130.789ZM152.059 126.241C152.493 126.296 152.841 126.323 153.091 126.323C158.592 126.323 163.586 123.494 167.939 117.918C169.701 115.648 171.19 113.198 172.362 110.627C173.523 108.083 174.113 106.005 174.113 104.457C174.113 102.89 173.433 102.164 171.971 102.164C169.189 102.164 165.743 104.641 161.722 109.521C157.741 114.351 154.493 119.974 152.059 126.241Z" fill="black"/>
<path d="M207.196 99.2345C204.981 99.2345 202.156 100.743 198.557 103.837C195.388 106.565 191.957 110.285 188.339 114.911C189.527 109.956 190.125 106.022 190.125 103.197C190.125 101.618 189.91 100.27 189.488 99.1759L189.32 98.75L188.925 98.9805C188.609 99.1681 188.409 99.2853 188.359 99.3244L184.69 101.348L181.06 103.126L181.036 103.142C181.005 103.161 180.892 103.228 180.505 103.423L180.212 103.568L180.767 105.42L181.149 105.295C181.388 105.213 181.575 105.146 181.7 105.096C182.396 104.834 182.943 104.697 183.33 104.697C183.65 104.697 184.51 104.697 184.51 106.725C184.51 109.468 183.963 113.309 182.88 118.201C182.189 121.323 181.275 124.875 180.149 128.845L179.755 130.326L182.076 130.072C183.388 127.231 184.936 124.285 186.479 121.71C188.48 118.373 190.672 115.271 193.028 112.422C197.154 107.452 200.382 104.928 202.629 104.928C203.367 104.928 204.348 105.217 204.348 107.686C204.348 109.292 203.891 111.32 202.992 113.708C202.085 116.107 200.952 118.307 199.62 120.241C197.334 123.585 194.532 126.325 191.289 128.384C189.304 129.65 186.612 130.466 183.287 130.818C179.458 131.209 176.914 131.643 175.503 132.143C174.081 132.647 172.733 133.585 171.486 134.937C168.951 137.762 167.665 140.508 167.665 143.103C167.665 145.217 168.556 146.96 170.314 148.288C172.041 149.585 174.288 150.246 176.996 150.246C181.591 150.246 184.236 148.526 184.862 145.131L185.018 144.283L184.279 144.725C182.072 146.037 179.61 146.702 176.957 146.702C174.816 146.702 173.057 146.288 171.733 145.475C170.451 144.685 169.83 143.697 169.83 142.45C169.83 140.755 170.49 139.465 171.85 138.512C173.249 137.527 175.597 136.773 178.821 136.273C182.689 135.679 186.155 134.515 189.125 132.811C192.086 131.111 195.294 128.427 198.655 124.836C206.059 116.943 209.81 109.714 209.81 103.349C209.81 99.9496 208.388 99.2345 207.196 99.2345Z" fill="black"/>
<path d="M258.004 130.449C258.29 126.429 261.087 118.715 266.327 107.517C267.312 105.422 267.519 104.532 267.519 104.153C267.519 103.355 267.21 103.355 267.026 103.355C266.706 103.355 265.85 103.605 263.736 105.266C262.076 106.575 260.439 108.134 258.876 109.9C256.492 112.538 254.081 115.679 251.713 119.239C249.345 122.795 247.568 125.932 246.431 128.558L246.341 128.761L246.122 128.789C244.387 129.011 242.75 129.515 241.265 130.281L240.304 130.778L241.148 128.785C242.879 124.737 244.504 120.775 245.977 117.016L250.467 105.583L255.035 94.1847C257.207 88.6557 258.305 85.2172 258.305 83.9708C258.305 83.1815 257.969 83.0174 257.469 83.0174C257.235 83.0174 256.676 83.115 255.332 83.5722L254.468 83.9043L253.823 82.0366L254.198 81.9116C257.207 80.8995 260.271 79.5554 263.307 77.9104L264.58 77.1719L264.612 77.8088C264.639 78.3128 264.651 78.6723 264.651 78.9029C264.651 80.8292 263.998 83.6933 262.709 87.4132C261.431 91.1057 258.844 97.6272 255.027 106.794L251.479 115.371C260.88 103.922 267.499 98.35 271.704 98.35C273.142 98.35 273.935 99.1432 273.935 100.581C273.935 101.542 273.47 103.027 272.516 105.118L270.137 110.373C265.186 121.283 264.147 124.674 264.147 125.6C264.147 125.901 264.221 126.054 264.639 126.054C265.065 126.054 265.971 125.835 267.867 124.795L268.519 124.432L269.66 126.077L269.277 126.284C266.765 127.644 263.467 129.058 259.477 130.492L257.953 131.039L258.004 130.449Z" fill="black"/>
<path d="M277.799 131.213C275.572 131.213 272.919 130.26 272.919 125.719C272.919 121.831 274.119 117.701 276.479 113.442C278.835 109.191 281.898 105.639 285.583 102.88C290.084 99.52 294.164 97.8125 297.711 97.8125C300.54 97.8125 301.134 99.2348 301.134 100.43C301.134 101.497 300.634 102.716 299.603 104.166C298.61 105.561 297.356 106.839 295.875 107.956C294.496 108.972 292.73 109.918 290.627 110.769C288.474 111.641 286.853 112.063 285.665 112.063C284.727 112.063 283.481 111.68 282.824 109.875C281.812 111.469 280.917 113.196 280.152 115.048C278.823 118.26 278.147 121.151 278.147 123.648C278.147 126.079 279.073 127.208 281.058 127.208C283.344 127.208 285.774 125.911 288.279 123.355C290.827 120.757 292.976 117.357 294.664 113.255L294.992 112.457L295.375 113.227C295.758 113.997 295.953 114.7 295.953 115.322C295.953 117.877 294.195 120.827 290.725 124.086C285.716 128.814 281.367 131.213 277.799 131.213ZM283.227 109.292C284.278 109.441 285.126 109.519 285.743 109.519C288.209 109.519 290.518 108.8 292.604 107.382C294.644 105.995 295.676 104.498 295.676 102.927C295.676 102.251 295.449 101.478 293.687 101.478C290.979 101.478 288.15 103.189 285.274 106.557C284.543 107.413 283.852 108.327 283.211 109.292H283.227Z" fill="black"/>
</svg>
